<svg id="Layer_1" data-name="Layer 1" xmlns="http://www.w3.org/2000/svg" xmlns:xlink="http://www.w3.org/1999/xlink" viewBox="0 0 560 560"><defs><style>.cls-1,.cls-2,.cls-3,.cls-4{stroke:#000;stroke-width:3px;}.cls-1{fill:url(#radial-gradient);}.cls-2{fill:url(#Blue);}.cls-3{fill:url(#Blue-2);}.cls-4{fill:url(#radial-gradient-2);}</style><radialGradient id="radial-gradient" cx="316.57" cy="285.58" r="120.13" gradientTransform="translate(-17.95 20.8) rotate(-3.66)" gradientUnits="userSpaceOnUse"><stop offset="0" stop-color="#fffab8"/><stop offset="0.2" stop-color="#fff67f"/><stop offset="0.39" stop-color="#fff100"/><stop offset="0.58" stop-color="#ffe436"/><stop offset="0.8" stop-color="#fff683"/><stop offset="0.99" stop-color="#ff0"/></radialGradient><linearGradient id="Blue" x1="16.09" y1="287.34" x2="221.73" y2="287.34" gradientUnits="userSpaceOnUse"><stop offset="0" stop-color="#2bc4f3"/><stop offset="0.5" stop-color="#00aeee"/><stop offset="1" stop-color="#0095da"/></linearGradient><linearGradient id="Blue-2" x1="228.22" y1="287.28" x2="380.2" y2="287.28" xlink:href="#Blue"/><radialGradient id="radial-gradient-2" cx="468.22" cy="287.4" r="84.9" gradientUnits="userSpaceOnUse"><stop offset="0" stop-color="#2bc4f3"/><stop offset="0.5" stop-color="#00aeee"/><stop offset="0.89" stop-color="#009fe2"/></radialGradient></defs><title>Artboard 1</title><polygon class="cls-1" points="224.42 428.52 386.69 258.15 333.42 263.11 408.52 150.35 354.66 146.04 270.83 304.39 300.02 299.42 224.42 428.52"/><path class="cls-2" d="M221.73,387.22H185.17l-15.1-15.47a97.18,97.18,0,0,1-53.65,15.47q-38.31,0-68-26-32.32-28.57-32.32-73,0-43.55,30.57-72.62,29.69-28.2,70.12-28.2,36.68,0,65.76,24.71,34.94,29.7,34.94,77.49,0,37.43-27.58,66.51Zm-80-79.81,27.95,27.8q18.46-19.2,18.47-47.5,0-31-20.59-52t-51.16-20.95q-30.95,0-50.91,20.95T45.42,288.46q0,31.17,20.71,51,21.59,20.45,49.29,20.45a68,68,0,0,0,34.06-8.6l-45.29-43.88Z"/><path class="cls-3" d="M380.2,201.37v34.38Q355,214.66,328,214.66q-29.7,0-50,21.34T257.55,287.9q0,30.32,20.46,51.16t50.16,20.84q15.35,0,26.08-5a75.22,75.22,0,0,0,12.42-6.74,146.8,146.8,0,0,0,13.54-10.23v35.12a104.65,104.65,0,0,1-52.41,14.16q-41.3,0-70.5-28.82-29.07-29.07-29.07-70.12,0-36.81,24.33-65.63Q282.5,187.33,330,187.33,356,187.33,380.2,201.37Z"/><path class="cls-4" d="M425.61,267.94l75-76.86h38.81l-87.09,87.22,87.59,105.44H501L431.6,298l-6,6v79.73H396.54V191.07h29.07Z"/></svg>